<svg
                  xmlns="http://www.w3.org/2000/svg"
                  width="12"
                  height="12"
                  viewBox="0 0 12 12"
                  fill="none"
                >
                  <mask id="path-1-inside-1_3004_75141" fill="white">
                    <path
                      fill-rule="evenodd"
                      clip-rule="evenodd"
                      d="M5.99961 0.600098C4.93159 0.600098 3.88756 0.916802 2.99953 1.51016C2.11151 2.10352 1.41938 2.94688 1.01066 3.9336C0.601949 4.92033 0.495011 6.00608 0.703371 7.05358C0.911731 8.10108 1.42603 9.06327 2.18123 9.81847C2.93644 10.5737 3.89862 11.088 4.94612 11.2963C5.99362 11.5047 7.07938 11.3978 8.0661 10.989C9.05282 10.5803 9.89618 9.8882 10.4895 9.00017C11.0829 8.11215 11.3996 7.06811 11.3996 6.00009C11.3996 4.56793 10.8307 3.19442 9.81798 2.18172C8.80529 1.16902 7.43178 0.600098 5.99961 0.600098ZM5.99961 10.7251C5.06509 10.7251 4.15156 10.448 3.37454 9.92879C2.59752 9.4096 1.9919 8.67165 1.63428 7.80827C1.27666 6.94489 1.18309 5.99485 1.3654 5.07829C1.54772 4.16173 1.99773 3.31982 2.65853 2.65902C3.31933 1.99821 4.16125 1.5482 5.07781 1.36589C5.99437 1.18357 6.94441 1.27714 7.80779 1.63477C8.67117 1.99239 9.40911 2.598 9.9283 3.37503C10.4475 4.15205 10.7246 5.06558 10.7246 6.00009C10.7246 7.25324 10.2268 8.45506 9.34069 9.34117C8.45458 10.2273 7.25276 10.7251 5.99961 10.7251ZM8.02461 5.66259H6.33711V3.3001C6.33711 3.21059 6.30155 3.12474 6.23826 3.06145C6.17496 2.99815 6.08912 2.9626 5.99961 2.9626C5.9101 2.9626 5.82425 2.99815 5.76096 3.06145C5.69767 3.12474 5.66211 3.21059 5.66211 3.3001V6.00009C5.66211 6.0896 5.69767 6.17545 5.76096 6.23874C5.82425 6.30204 5.9101 6.33759 5.99961 6.33759H8.02461C8.11412 6.33759 8.19996 6.30204 8.26326 6.23874C8.32655 6.17545 8.36211 6.0896 8.36211 6.00009C8.36211 5.91058 8.32655 5.82474 8.26326 5.76145C8.19996 5.69815 8.11412 5.66259 8.02461 5.66259Z"
                    />
                  </mask>
                  <path
                    fill-rule="evenodd"
                    clip-rule="evenodd"
                    d="M5.99961 0.600098C4.93159 0.600098 3.88756 0.916802 2.99953 1.51016C2.11151 2.10352 1.41938 2.94688 1.01066 3.9336C0.601949 4.92033 0.495011 6.00608 0.703371 7.05358C0.911731 8.10108 1.42603 9.06327 2.18123 9.81847C2.93644 10.5737 3.89862 11.088 4.94612 11.2963C5.99362 11.5047 7.07938 11.3978 8.0661 10.989C9.05282 10.5803 9.89618 9.8882 10.4895 9.00017C11.0829 8.11215 11.3996 7.06811 11.3996 6.00009C11.3996 4.56793 10.8307 3.19442 9.81798 2.18172C8.80529 1.16902 7.43178 0.600098 5.99961 0.600098ZM5.99961 10.7251C5.06509 10.7251 4.15156 10.448 3.37454 9.92879C2.59752 9.4096 1.9919 8.67165 1.63428 7.80827C1.27666 6.94489 1.18309 5.99485 1.3654 5.07829C1.54772 4.16173 1.99773 3.31982 2.65853 2.65902C3.31933 1.99821 4.16125 1.5482 5.07781 1.36589C5.99437 1.18357 6.94441 1.27714 7.80779 1.63477C8.67117 1.99239 9.40911 2.598 9.9283 3.37503C10.4475 4.15205 10.7246 5.06558 10.7246 6.00009C10.7246 7.25324 10.2268 8.45506 9.34069 9.34117C8.45458 10.2273 7.25276 10.7251 5.99961 10.7251ZM8.02461 5.66259H6.33711V3.3001C6.33711 3.21059 6.30155 3.12474 6.23826 3.06145C6.17496 2.99815 6.08912 2.9626 5.99961 2.9626C5.9101 2.9626 5.82425 2.99815 5.76096 3.06145C5.69767 3.12474 5.66211 3.21059 5.66211 3.3001V6.00009C5.66211 6.0896 5.69767 6.17545 5.76096 6.23874C5.82425 6.30204 5.9101 6.33759 5.99961 6.33759H8.02461C8.11412 6.33759 8.19996 6.30204 8.26326 6.23874C8.32655 6.17545 8.36211 6.0896 8.36211 6.00009C8.36211 5.91058 8.32655 5.82474 8.26326 5.76145C8.19996 5.69815 8.11412 5.66259 8.02461 5.66259Z"
                    fill="#C0C0EE"
                  />
                  <path
                    d="M5.99961 0.600098V-0.399902V0.600098ZM11.3996 6.00009H12.3996H11.3996ZM5.99961 10.7251V9.72509V10.7251ZM6.33711 5.66259H5.33711V6.66259H6.33711V5.66259ZM5.99961 -0.399902C4.73381 -0.399902 3.49643 -0.0245491 2.44396 0.678692L3.5551 2.34163C4.27868 1.85815 5.12937 1.6001 5.99961 1.6001V-0.399902ZM2.44396 0.678692C1.39149 1.38193 0.571183 2.38147 0.0867825 3.55092L1.93454 4.31629C2.26757 3.51229 2.83153 2.82511 3.5551 2.34163L2.44396 0.678692ZM0.0867825 3.55092C-0.397618 4.72037 -0.524359 6.00719 -0.277414 7.24867L1.68416 6.85849C1.51438 6.00498 1.60152 5.12028 1.93454 4.31629L0.0867825 3.55092ZM-0.277414 7.24867C-0.0304688 8.49015 0.579072 9.63052 1.47413 10.5256L2.88834 9.11136C2.27299 8.49601 1.85393 7.71201 1.68416 6.85849L-0.277414 7.24867ZM1.47413 10.5256C2.36918 11.4206 3.50955 12.0302 4.75103 12.2771L5.14121 10.3155C4.2877 10.1458 3.50369 9.72671 2.88834 9.11136L1.47413 10.5256ZM4.75103 12.2771C5.99251 12.5241 7.27933 12.3973 8.44878 11.9129L7.68341 10.0652C6.87942 10.3982 5.99473 10.4853 5.14121 10.3155L4.75103 12.2771ZM8.44878 11.9129C9.61823 11.4285 10.6178 10.6082 11.321 9.55574L9.65807 8.4446C9.17459 9.16818 8.48741 9.73214 7.68341 10.0652L8.44878 11.9129ZM11.321 9.55574C12.0243 8.50327 12.3996 7.26589 12.3996 6.00009H10.3996C10.3996 6.87033 10.1416 7.72103 9.65807 8.4446L11.321 9.55574ZM12.3996 6.00009C12.3996 4.30271 11.7253 2.67485 10.5251 1.47461L9.11088 2.88883C9.93604 3.71399 10.3996 4.83314 10.3996 6.00009H12.3996ZM10.5251 1.47461C9.32486 0.274381 7.69699 -0.399902 5.99961 -0.399902V1.6001C7.16656 1.6001 8.28572 2.06367 9.11088 2.88883L10.5251 1.47461ZM5.99961 9.72509C5.26287 9.72509 4.54268 9.50662 3.93011 9.09732L2.81897 10.7603C3.76044 11.3893 4.86731 11.7251 5.99961 11.7251V9.72509ZM3.93011 9.09732C3.31754 8.68801 2.8401 8.10624 2.55816 7.42559L0.710401 8.19096C1.14371 9.23706 1.8775 10.1312 2.81897 10.7603L3.93011 9.09732ZM2.55816 7.42559C2.27622 6.74494 2.20246 5.99596 2.34619 5.27338L0.384616 4.8832C0.163715 5.99374 0.277089 7.14485 0.710401 8.19096L2.55816 7.42559ZM2.34619 5.27338C2.48992 4.5508 2.84469 3.88707 3.36564 3.36612L1.95142 1.95191C1.15077 2.75257 0.605516 3.77266 0.384616 4.8832L2.34619 5.27338ZM3.36564 3.36612C3.88659 2.84517 4.55032 2.4904 5.2729 2.34667L4.88272 0.385101C3.77218 0.606002 2.75208 1.15125 1.95142 1.95191L3.36564 3.36612ZM5.2729 2.34667C5.99548 2.20294 6.74445 2.27671 7.4251 2.55865L8.19047 0.710887C7.14436 0.277575 5.99326 0.164201 4.88272 0.385101L5.2729 2.34667ZM7.4251 2.55865C8.10576 2.84058 8.68752 3.31802 9.09683 3.9306L10.7598 2.81946C10.1307 1.87799 9.23658 1.1442 8.19047 0.710887L7.4251 2.55865ZM9.09683 3.9306C9.50614 4.54317 9.72461 5.26336 9.72461 6.00009H11.7246C11.7246 4.8678 11.3888 3.76093 10.7598 2.81946L9.09683 3.9306ZM9.72461 6.00009C9.72461 6.98802 9.33215 7.93549 8.63358 8.63407L10.0478 10.0483C11.1214 8.97463 11.7246 7.51846 11.7246 6.00009H9.72461ZM8.63358 8.63407C7.93501 9.33264 6.98754 9.72509 5.99961 9.72509V11.7251C7.51797 11.7251 8.97415 11.1219 10.0478 10.0483L8.63358 8.63407ZM8.02461 4.66259H6.33711V6.66259H8.02461V4.66259ZM7.33711 5.66259V3.3001H5.33711V5.66259H7.33711ZM7.33711 3.3001C7.33711 2.94537 7.19619 2.60517 6.94536 2.35434L5.53115 3.76855C5.40691 3.64431 5.33711 3.4758 5.33711 3.3001H7.33711ZM6.94536 2.35434C6.69454 2.10351 6.35434 1.9626 5.99961 1.9626V3.9626C5.8239 3.9626 5.65539 3.8928 5.53115 3.76855L6.94536 2.35434ZM5.99961 1.9626C5.64488 1.9626 5.30468 2.10351 5.05385 2.35434L6.46807 3.76855C6.34382 3.8928 6.17531 3.9626 5.99961 3.9626V1.9626ZM5.05385 2.35434C4.80302 2.60517 4.66211 2.94537 4.66211 3.3001H6.66211C6.66211 3.4758 6.59231 3.64431 6.46807 3.76855L5.05385 2.35434ZM4.66211 3.3001V6.00009H6.66211V3.3001H4.66211ZM4.66211 6.00009C4.66211 6.35482 4.80302 6.69502 5.05385 6.94585L6.46807 5.53164C6.59231 5.65588 6.66211 5.82439 6.66211 6.00009H4.66211ZM5.05385 6.94585C5.30469 7.19668 5.64488 7.33759 5.99961 7.33759V5.33759C6.17531 5.33759 6.34382 5.40739 6.46807 5.53164L5.05385 6.94585ZM5.99961 7.33759H8.02461V5.33759H5.99961V7.33759ZM8.02461 7.33759C8.37933 7.33759 8.71953 7.19668 8.97036 6.94585L7.55615 5.53164C7.68039 5.40739 7.8489 5.33759 8.02461 5.33759V7.33759ZM8.97036 6.94585C9.2212 6.69502 9.36211 6.35482 9.36211 6.00009H7.36211C7.36211 5.82439 7.4319 5.65588 7.55615 5.53164L8.97036 6.94585ZM9.36211 6.00009C9.36211 5.64537 9.22119 5.30517 8.97036 5.05434L7.55615 6.46855C7.43191 6.34431 7.36211 6.1758 7.36211 6.00009H9.36211ZM8.97036 5.05434C8.71953 4.80351 8.37934 4.66259 8.02461 4.66259V6.66259C7.8489 6.66259 7.68039 6.59279 7.55615 6.46855L8.97036 5.05434Z"
                    fill="#C0C0EE"
                    mask="url(#path-1-inside-1_3004_75141)"
                  />
                </svg>